<?xml version="1.0" standalone="no"?>
<!DOCTYPE svg PUBLIC "-//W3C//DTD SVG 20010904//EN"
 "http://www.w3.org/TR/2001/REC-SVG-20010904/DTD/svg10.dtd">
<svg version="1.0" xmlns="http://www.w3.org/2000/svg"
 width="1024.000000pt" height="1024.000000pt" viewBox="0 0 1024.000000 1024.000000"
 preserveAspectRatio="xMidYMid meet">

<g transform="translate(0.000000,1024.000000) scale(0.100000,-0.100000)"
fill="#000000" stroke="none">
<path d="M5039 7877 c-21 -8 -63 -29 -95 -47 -33 -18 -142 -80 -244 -138 -102
-57 -219 -123 -260 -146 -41 -23 -167 -94 -280 -158 -113 -63 -297 -167 -410
-230 -113 -63 -317 -177 -455 -254 -141 -78 -265 -155 -287 -176 -72 -72 -69
-10 -66 -1274 l3 -1129 27 -50 c14 -27 37 -60 50 -71 12 -12 172 -104 353
-204 514 -285 672 -373 925 -515 552 -310 709 -394 753 -406 26 -6 72 -9 101
-7 54 5 200 82 1131 604 66 37 298 166 515 287 217 120 410 233 428 250 73 69
67 -37 64 1247 -2 763 -6 1168 -13 1194 -21 78 -66 109 -544 374 -247 137
-472 262 -500 277 -27 16 -228 128 -445 250 -588 331 -581 327 -653 331 -38 3
-76 -1 -98 -9z m39 -508 l-3 -431 -38 -13 c-63 -21 -114 -62 -144 -112 -23
-40 -28 -59 -28 -118 0 -38 2 -76 5 -84 4 -10 -82 -63 -293 -183 l-298 -168
-45 39 c-108 95 -253 95 -360 -2 l-39 -35 -165 95 c-91 52 -258 146 -372 209
-115 64 -208 119 -208 124 0 10 24 24 880 503 349 195 734 411 855 480 121 69
228 126 238 126 16 1 17 -24 15 -430z m161 402 c31 -15 162 -88 291 -161 129
-73 339 -190 465 -260 127 -70 284 -158 350 -195 66 -37 257 -144 425 -237
168 -94 316 -178 330 -188 14 -9 34 -20 44 -24 17 -6 18 -9 5 -21 -8 -8 -151
-91 -319 -185 -168 -95 -331 -187 -363 -206 l-59 -34 -28 30 c-15 16 -52 41
-82 55 -98 46 -208 27 -288 -49 l-35 -34 -299 168 -300 167 0 84 c-1 73 -5 90
-29 132 -34 57 -96 105 -149 113 l-38 7 0 433 c0 315 3 434 11 434 6 0 37 -13
68 -29z m-2117 -1194 c40 -24 209 -119 375 -211 l301 -169 -5 -73 c-5 -65 -3
-79 21 -128 33 -67 79 -109 146 -133 l50 -18 -2 -354 -3 -354 -45 -15 c-62
-21 -145 -105 -160 -163 -11 -39 -10 -128 1 -168 3 -10 -26 -32 -85 -65 -48
-28 -219 -126 -380 -217 -160 -91 -294 -164 -298 -162 -12 6 -10 2273 1 2273
5 0 42 -19 83 -43z m4094 -1100 c5 -843 4 -1127 -4 -1127 -6 0 -74 35 -149 78
-262 149 -588 331 -606 338 -17 6 -18 14 -12 74 8 84 -5 133 -51 194 -71 93
-208 127 -314 79 -55 -25 -123 -96 -140 -149 -15 -46 -18 -116 -7 -161 9 -36
50 -8 -333 -226 -113 -65 -217 -125 -232 -134 -26 -16 -27 -16 -52 14 -14 16
-53 42 -87 58 -51 23 -72 26 -123 23 -70 -5 -126 -29 -170 -73 l-31 -31 -125
71 c-69 39 -202 115 -297 168 l-171 97 5 78 c6 88 -10 138 -63 201 -28 34
-113 81 -146 81 -17 0 -18 24 -18 358 l0 359 42 12 c63 19 124 66 155 119 25
42 28 57 28 135 0 48 3 87 6 87 4 0 138 74 300 165 l293 165 30 -29 c46 -45
112 -71 179 -71 68 0 115 18 173 65 l42 35 244 -137 c133 -74 268 -149 298
-166 l55 -30 0 -71 c0 -39 4 -81 8 -92 8 -22 -48 -56 -583 -357 l-35 -20 -48
32 c-88 60 -187 69 -275 25 -129 -64 -177 -211 -112 -341 49 -98 127 -145 240
-145 129 -1 225 79 250 210 7 37 6 64 -4 101 l-13 51 297 170 c163 93 304 172
312 175 10 4 35 -8 62 -29 128 -97 303 -64 383 72 25 42 28 57 28 134 0 81 2
88 23 98 24 11 534 297 657 368 38 23 73 38 77 34 4 -4 10 -515 14 -1135z
m-3333 -802 c99 -85 246 -84 345 1 l41 35 38 -25 c21 -14 155 -90 298 -170
l260 -145 -3 -70 c-3 -58 0 -79 20 -123 32 -68 90 -124 150 -144 l48 -16 0
-429 c0 -381 -2 -429 -15 -429 -16 0 -163 79 -575 310 -129 72 -491 273 -805
447 -627 347 -615 340 -615 351 0 4 10 12 23 18 28 13 370 207 582 330 88 51
162 93 163 93 2 1 22 -15 45 -34z m2801 -122 c144 -81 310 -175 371 -209 60
-33 111 -66 112 -71 2 -6 -7 -17 -21 -26 -21 -14 -723 -407 -1291 -722 -121
-67 -314 -175 -430 -240 -115 -65 -222 -121 -237 -126 l-28 -8 0 433 0 432 49
18 c129 46 192 161 169 310 -2 15 44 46 242 158 135 77 270 153 301 169 l57
31 45 -35 c104 -79 264 -71 347 17 14 16 30 24 39 21 8 -3 132 -72 275 -152z"/>
</g>
</svg>
